<svg width="17" height="19" viewBox="0 0 17 19" fill="none" xmlns="http://www.w3.org/2000/svg">
<g clip-path="url(#clip0_2_403)">
<path d="M8.5 4.98242C6.125 4.98242 4.23242 6.91211 4.23242 9.25C4.23242 11.625 6.125 13.5176 8.5 13.5176C10.8379 13.5176 12.7676 11.625 12.7676 9.25C12.7676 6.91211 10.8379 4.98242 8.5 4.98242ZM8.5 12.0332C6.97852 12.0332 5.7168 10.8086 5.7168 9.25C5.7168 7.72851 6.94141 6.50391 8.5 6.50391C10.0215 6.50391 11.2461 7.72851 11.2461 9.25C11.2461 10.8086 10.0215 12.0332 8.5 12.0332ZM13.918 4.83398C13.918 4.27734 13.4727 3.83203 12.916 3.83203C12.3594 3.83203 11.9141 4.27734 11.9141 4.83398C11.9141 5.39062 12.3594 5.83594 12.916 5.83594C13.4727 5.83594 13.918 5.39062 13.918 4.83398ZM16.7383 5.83594C16.6641 4.5 16.3672 3.3125 15.4023 2.34766C14.4375 1.38281 13.25 1.08594 11.9141 1.01172C10.541 0.9375 6.42188 0.9375 5.04883 1.01172C3.71289 1.08594 2.5625 1.38281 1.56055 2.34766C0.595703 3.3125 0.298828 4.5 0.224609 5.83594C0.150391 7.20898 0.150391 11.3281 0.224609 12.7012C0.298828 14.0371 0.595703 15.1875 1.56055 16.1895C2.5625 17.1543 3.71289 17.4512 5.04883 17.5254C6.42188 17.5996 10.541 17.5996 11.9141 17.5254C13.25 17.4512 14.4375 17.1543 15.4023 16.1895C16.3672 15.1875 16.6641 14.0371 16.7383 12.7012C16.8125 11.3281 16.8125 7.20898 16.7383 5.83594ZM14.957 14.1485C14.6973 14.8906 14.1035 15.4473 13.3984 15.7442C12.2852 16.1895 9.6875 16.0781 8.5 16.0781C7.27539 16.0781 4.67773 16.1895 3.60156 15.7442C2.85938 15.4473 2.30273 14.8906 2.00586 14.1485C1.56055 13.0723 1.67188 10.4746 1.67188 9.25C1.67188 8.0625 1.56055 5.46484 2.00586 4.35156C2.30273 3.64648 2.85938 3.08984 3.60156 2.79297C4.67773 2.34766 7.27539 2.45898 8.5 2.45898C9.6875 2.45898 12.2852 2.34766 13.3984 2.79297C14.1035 3.05273 14.6602 3.64648 14.957 4.35156C15.4023 5.46484 15.291 8.0625 15.291 9.25C15.291 10.4746 15.4023 13.0723 14.957 14.1485Z" fill="#292F36"/>
</g>
<defs>
<clipPath id="clip0_2_403">
<rect width="17" height="18" fill="white" transform="translate(0 0.203125)"/>
</clipPath>
</defs>
</svg>
