<svg width="16" height="18" viewBox="0 0 16 18" fill="none" xmlns="http://www.w3.org/2000/svg">
<g clip-path="url(#clip0_2_401)">
<path d="M3.64062 16.375V5.86328H0.371094V16.375H3.64062ZM1.98828 4.45703C3.04297 4.45703 3.88672 3.57812 3.88672 2.52344C3.88672 1.50391 3.04297 0.660156 1.98828 0.660156C0.96875 0.660156 0.125 1.50391 0.125 2.52344C0.125 3.57812 0.96875 4.45703 1.98828 4.45703ZM15.8398 16.375H15.875V10.6094C15.875 7.79687 15.2422 5.61719 11.9375 5.61719C10.3555 5.61719 9.30078 6.49609 8.84375 7.30469H8.80859V5.86328H5.67969V16.375H8.94922V11.1719C8.94922 9.80078 9.19531 8.5 10.8828 8.5C12.5703 8.5 12.6055 10.0469 12.6055 11.2774V16.375H15.8398Z" fill="#292F36"/>
</g>
<defs>
<clipPath id="clip0_2_401">
<rect width="16" height="17" fill="white" transform="translate(0 0.203125)"/>
</clipPath>
</defs>
</svg>
