<svg width="18" height="16" viewBox="0 0 18 16" fill="none" xmlns="http://www.w3.org/2000/svg">
<g clip-path="url(#clip0_2_399)">
<path d="M16.1367 3.96875C16.8398 3.44141 17.4727 2.80859 17.9648 2.07031C17.332 2.35156 16.5938 2.5625 15.8555 2.63281C16.6289 2.17578 17.1914 1.47266 17.4727 0.59375C16.7695 1.01563 15.9609 1.33203 15.1523 1.50781C14.4492 0.769531 13.5 0.347656 12.4453 0.347656C10.4062 0.347656 8.75391 2 8.75391 4.03906C8.75391 4.32031 8.78906 4.60156 8.85938 4.88281C5.80078 4.70703 3.05859 3.23047 1.23047 1.01563C0.914062 1.54297 0.738281 2.17578 0.738281 2.87891C0.738281 4.14453 1.37109 5.26953 2.39062 5.9375C1.79297 5.90234 1.19531 5.76172 0.703125 5.48047V5.51562C0.703125 7.30859 1.96875 8.78516 3.65625 9.13672C3.375 9.20703 3.02344 9.27734 2.70703 9.27734C2.46094 9.27734 2.25 9.24219 2.00391 9.20703C2.46094 10.6836 3.83203 11.7383 5.44922 11.7735C4.18359 12.7578 2.60156 13.3555 0.878906 13.3555C0.5625 13.3555 0.28125 13.3203 0 13.2852C1.61719 14.3399 3.55078 14.9375 5.66016 14.9375C12.4453 14.9375 16.1367 9.34766 16.1367 4.46094C16.1367 4.28516 16.1367 4.14453 16.1367 3.96875Z" fill="#292F36"/>
</g>
<defs>
<clipPath id="clip0_2_399">
<rect width="18" height="15" fill="white" transform="translate(0 0.203125)"/>
</clipPath>
</defs>
</svg>
